HIERARCHY
ROOT Character1_Hips
{
	OFFSET	0.000000	0.000000	0.000000
	CHANNELS 6 Xposition Yposition Zposition Zrotation Yrotation Xrotation
	JOINT Character1_Spine
	{
		OFFSET	0.000000	0.000000	0.000000
		CHANNELS 3 Zrotation Yrotation Xrotation
		JOINT Character1_Spine1
		{
			OFFSET	-0.159647	12.118038	-0.624335
			CHANNELS 3 Zrotation Yrotation Xrotation
			JOINT Character1_LeftShoulder
			{
				OFFSET	0.043845	24.307200	0.378636
				CHANNELS 3 Zrotation Yrotation Xrotation
				JOINT Character1_LeftArm
				{
					OFFSET	18.150765	8.164377	-0.209994
					CHANNELS 3 Zrotation Yrotation Xrotation
					JOINT Character1_LeftForeArm
					{
						OFFSET	30.911856	-0.000000	-0.000000
						CHANNELS 3 Zrotation Yrotation Xrotation
						JOINT Character1_LeftHand
						{
							OFFSET	17.444607	-0.000000	-0.000000
							CHANNELS 3 Zrotation Yrotation Xrotation
							End Site
							{
								OFFSET	8.722304	-0.000000	-0.000000
							}
						}
					}
				}
			}
			JOINT Character1_RightShoulder
			{
				OFFSET	0.043845	24.307200	0.378636
				CHANNELS 3 Zrotation Yrotation Xrotation
				JOINT Character1_RightArm
				{
					OFFSET	-19.117327	7.275927	-0.400367
					CHANNELS 3 Zrotation Yrotation Xrotation
					JOINT Character1_RightForeArm
					{
						OFFSET	-29.022717	-0.000000	-0.000000
						CHANNELS 3 Zrotation Yrotation Xrotation
						JOINT Character1_RightHand
						{
							OFFSET	-18.940780	-0.000000	-0.000000
							CHANNELS 3 Zrotation Yrotation Xrotation
							End Site
							{
								OFFSET	-9.470362	-0.000000	-0.000000
							}
						}
					}
				}
			}
			JOINT Character1_Neck
			{
				OFFSET	0.043845	24.307200	0.378636
				CHANNELS 3 Zrotation Yrotation Xrotation
				JOINT Character1_Head
				{
					OFFSET	-0.045498	21.428801	-0.982541
					CHANNELS 3 Zrotation Yrotation Xrotation
					End Site
					{
						OFFSET	0.179810	10.843468	-0.535288
					}
				}
			}
		}
	}
	JOINT Character1_RightUpLeg
	{
		OFFSET	-9.266443	-10.474173	3.905763
		CHANNELS 3 Zrotation Yrotation Xrotation
		JOINT Character1_RightLeg
		{
			OFFSET	-13.649050	-37.500488	0.000000
			CHANNELS 3 Zrotation Yrotation Xrotation
			JOINT Character1_RightFoot
			{
				OFFSET	-15.837653	-43.513629	0.000000
				CHANNELS 3 Zrotation Yrotation Xrotation
				JOINT Character1_RightToeBase
				{
					OFFSET	-1.077978	-2.961728	12.722659
					CHANNELS 3 Zrotation Yrotation Xrotation
					End Site
					{
						OFFSET	-0.000000	-0.000000	6.566352
					}
				}
			}
		}
	}
	JOINT Character1_LeftUpLeg
	{
		OFFSET	9.869701	-10.474183	3.905765
		CHANNELS 3 Zrotation Yrotation Xrotation
		JOINT Character1_LeftLeg
		{
			OFFSET	13.546829	-37.219639	0.000000
			CHANNELS 3 Zrotation Yrotation Xrotation
			JOINT Character1_LeftFoot
			{
				OFFSET	15.926881	-43.758782	0.000000
				CHANNELS 3 Zrotation Yrotation Xrotation
				JOINT Character1_LeftToeBase
				{
					OFFSET	0.929407	-2.553526	12.806656
					CHANNELS 3 Zrotation Yrotation Xrotation
					End Site
					{
						OFFSET	0.000000	-0.000000	6.574988
					}
				}
			}
		}
	}
}
MOTION
Frames:	7
Frame Time:	0.008333
96.779644	100.691809	-79.411689	3.228370	-52.801300	0.145598	-1.983110	1.701730	1.416280	-0.470729	2.224640	-0.404230	0.000000	-0.000000	0.000000	-84.094611	3.526631	33.881088	13.890612	-22.578111	-2.785972	-0.000000	0.000000	-5.625170	0.000000	-0.000000	0.000000	86.329842	-2.233138	20.399209	-11.530881	19.097395	-1.946070	0.000000	0.000000	4.482370	-5.462390	-2.650000	-10.073900	1.198470	-1.739670	7.251410	20.539146	5.661899	-11.392806	-2.496555	-9.831637	28.433228	-1.073254	-9.004076	-24.767822	-0.161877	2.592218	-7.145432	-26.559702	-6.372178	-9.021895	1.811921	8.462814	24.128875	0.929945	7.432060	-22.361797	0.906676	-6.067873	-16.981478
96.782467	100.688422	-79.396449	3.232310	-52.790800	0.117410	-2.001440	1.697800	1.488690	-0.470857	2.217220	-0.399900	0.000000	-0.000000	0.000000	-84.087111	3.559864	33.799570	13.889908	-22.577103	-2.785701	0.000000	0.000000	-5.557430	0.000000	-0.000000	0.000000	86.325936	-2.252849	20.415431	-11.521587	19.083309	-1.943031	0.000000	0.000000	4.449550	-5.460470	-2.643960	-10.053900	1.211400	-1.736810	7.249660	20.531975	5.661922	-11.360274	-2.495811	-9.830284	28.428872	-1.064747	-9.054882	-24.739555	-0.165382	2.619996	-7.222514	-26.572636	-6.368848	-8.984016	1.809901	8.458350	24.115140	0.931241	7.410823	-22.357389	0.889917	-6.013026	-16.822222
96.779080	100.685036	-79.375000	3.183210	-52.770500	0.180418	-1.993670	1.680280	1.482730	-0.457575	2.194290	-0.406032	0.000000	0.000000	0.000000	-84.090550	3.618437	33.684470	13.909440	-22.605097	-2.793205	-0.000000	0.000000	-5.447100	0.000000	0.000000	0.000000	86.306623	-2.267038	20.453039	-11.502611	19.054541	-1.936831	0.000000	0.000000	4.424570	-5.414890	-2.618550	-9.953620	1.198880	-1.723190	7.205630	20.554758	5.632021	-11.353058	-2.486384	-9.813105	28.373607	-1.067131	-9.034655	-24.742777	-0.166485	2.628679	-7.246612	-26.546524	-6.419028	-9.040725	1.825190	8.492051	24.218880	0.938288	7.403634	-22.414177	0.891670	-6.018788	-16.838944
96.798836	100.690680	-79.386853	2.980820	-52.725100	0.403076	-1.887730	1.684510	1.529890	-0.440482	2.201020	-0.420719	0.000000	-0.000000	0.000000	-84.053931	3.629357	33.695290	13.938196	-22.646285	-2.804268	0.000000	-0.000000	-5.443230	0.000000	-0.000000	0.000000	86.357453	-2.188227	20.219106	-11.441532	18.961861	-1.916937	-0.000000	-0.000000	4.593520	-5.345950	-2.637780	-10.003900	1.173110	-1.735180	7.219780	20.704950	5.803703	-11.340248	-2.476777	-9.795556	28.317187	-1.072061	-9.115313	-24.845486	-0.145146	2.455209	-6.765473	-26.386520	-6.452842	-9.197122	1.840628	8.525911	24.323215	0.944034	7.318265	-22.401483	0.883063	-5.990433	-16.756666
96.842298	100.699147	-79.420156	2.629190	-52.724500	0.710373	-1.657450	1.720060	1.672610	-0.419707	2.250120	-0.451606	0.000000	-0.000000	0.000000	-83.973253	3.629201	33.827344	13.964796	-22.684359	-2.814518	0.000000	0.000000	-5.517740	0.000000	-0.000000	0.000000	86.421279	-2.162846	20.066767	-11.408001	18.910929	-1.906056	0.000000	0.000000	4.656700	-5.307330	-2.657440	-10.059000	1.169490	-1.748510	7.256500	20.975558	6.042175	-11.302967	-2.466612	-9.776943	28.257387	-1.049779	-9.361887	-24.863200	-0.142972	2.436830	-6.714533	-26.120676	-6.490590	-9.346768	1.856558	8.560678	24.430452	0.953299	7.245205	-22.429150	0.886735	-6.002549	-16.791819
96.860924	100.711000	-79.412818	2.427960	-52.777800	0.883541	-1.524390	1.745630	1.742600	-0.386037	2.286090	-0.481124	0.000000	-0.000000	0.000000	-83.967232	3.687953	33.899771	13.991411	-22.722428	-2.824790	0.000000	0.000000	-5.533490	0.000000	-0.000000	0.000000	86.363363	-2.255955	20.291604	-11.449638	18.974168	-1.919572	0.000000	0.000000	4.373290	-5.353480	-2.644840	-9.971170	1.187870	-1.742060	7.228410	21.117437	6.102061	-11.304027	-2.458666	-9.762359	28.210557	-1.012522	-9.561131	-24.725272	-0.171940	2.671179	-7.364589	-25.987945	-6.522163	-9.421225	1.870287	8.590499	24.522521	0.956335	7.285685	-22.485488	0.897897	-6.039212	-16.898235
96.859231	100.714387	-79.386289	2.468050	-52.833400	0.869656	-1.582490	1.746620	1.764750	-0.360696	2.285700	-0.507027	-0.000000	0.000000	0.000000	-84.017109	3.773672	33.878665	14.004577	-22.741251	-2.829877	-0.000000	0.000000	-5.586620	-0.000000	0.000000	0.000000	86.278716	-2.320596	20.435982	-11.464065	18.996067	-1.924266	0.000000	0.000000	4.209830	-5.436130	-2.641870	-9.916860	1.209270	-1.740840	7.216080	21.070691	6.122906	-11.302428	-2.452813	-9.751598	28.176018	-1.003598	-9.550966	-24.644916	-0.175941	2.701925	-7.449959	-26.024373	-6.510033	-9.470783	1.880005	8.611529	24.587498	0.964154	7.266634	-22.539904	0.869315	-5.944829	-16.624432
